Coordinates
version=1
nRows=16
nColumns=40
inDegrees=yes

Units are S.I. units (second, meters, Newtons, ...)
Angles are in degrees.

endheader
time	pelvis_tilt	pelvis_list	pelvis_rotation	pelvis_tx	pelvis_ty	pelvis_tz	hip_flexion_r	hip_adduction_r	hip_rotation_r	knee_angle_r	knee_angle_r_beta	ankle_angle_r	subtalar_angle_r	mtp_angle_r	hip_flexion_l	hip_adduction_l	hip_rotation_l	knee_angle_l	knee_angle_l_beta	ankle_angle_l	subtalar_angle_l	mtp_angle_l	lumbar_extension	lumbar_bending	lumbar_rotation	arm_flex_r	arm_add_r	arm_rot_r	elbow_flex_r	pro_sup_r	wrist_flex_r	wrist_dev_r	arm_flex_l	arm_add_l	arm_rot_l	elbow_flex_l	pro_sup_l	wrist_flex_l	wrist_dev_l
     49.41250000	     -6.52869707	     -5.85883836	      2.99952093	      0.96263250	      0.92293982	      0.44811201	      2.40967961	      1.89822712	    -13.30845655	     18.99846649	     18.99846649	     17.24348793	      3.85907817	     -2.62679118	     27.82822473	     -6.88782536	     -0.25175799	     26.11513015	     26.11513015	      8.10974196	    -15.12242352	      5.92396932	     -8.42589653	      5.58667134	      3.46595071	     30.23254981	    -16.31497925	      0.54110825	     90.47090316	     44.93796438	      0.00000000	      0.00000000	     -5.41179052	     -8.47645085	     -1.15156634	     31.30895992	     45.05920662	      0.00000000	      0.00000000
     49.42571429	     -6.79818820	     -5.50905179	      2.63558175	      0.96155472	      0.92328606	      0.44539083	      3.80650596	      0.94668749	    -12.83798447	     21.76360079	     21.76360079	     17.06994269	      2.95249810	     -3.66088254	     27.43701386	     -6.52100255	     -0.93049370	     25.84403362	     25.84403362	      8.51328685	    -14.88208983	      5.82798461	     -8.22652327	      5.16095688	      3.84225712	     28.36998056	    -16.83453897	      0.52305700	     88.62595765	     44.99317671	      0.00000000	      0.00000000	     -4.34034290	     -8.64629714	     -1.37634520	     32.33710119	     45.11558098	      0.00000000	      0.00000000
     49.43892857	     -6.82521192	     -5.35580234	      2.38882275	      0.96064673	      0.92399890	      0.44268604	      4.83816438	      0.26616398	    -12.48921794	     24.27757498	     24.27757498	     16.60255018	      2.14417049	     -4.66545741	     26.82649618	     -6.32614904	     -1.42020993	     25.59752868	     25.59752868	      8.89665641	    -14.67099101	      5.65683043	     -8.28134532	      5.00143733	      3.80853541	     26.49430844	    -16.85147288	      0.65686917	     87.02557177	     45.03445454	      0.00000000	      0.00000000	     -3.32294489	     -8.83709317	     -1.56093977	     33.25423497	     45.16272691	      0.00000000	      0.00000000
     49.45214286	     -6.84058539	     -5.26165280	      2.16203171	      0.95965792	      0.92467857	      0.43998110	      6.05084146	     -0.38177260	    -12.13285061	     27.08795536	     27.08795536	     15.88721027	      1.21085555	     -5.83941070	     26.21543430	     -6.17393585	     -1.83170496	     25.34375227	     25.34375227	      9.23897449	    -14.41879515	      5.43069650	     -8.38285341	      4.93598677	      3.72579310	     24.62371609	    -16.79598704	      0.79609026	     85.30633227	     45.07895407	      0.00000000	      0.00000000	     -2.27081634	     -9.04357959	     -1.74881794	     34.24155587	     45.20952907	      0.00000000	      0.00000000
     49.46535714	     -6.92632194	     -5.20671959	      1.93700922	      0.95857488	      0.92508093	      0.43739358	      7.32151457	     -0.88041042	    -11.52904347	     29.50632262	     29.50632262	     12.56602103	     -1.31820690	    -13.56774823	     25.68204292	     -6.06408470	     -2.24911359	     25.04604679	     25.04604679	      9.31511325	    -14.27991349	      4.46295062	     -8.36740349	      4.86750992	      2.95033107	     23.70300196	    -16.07238161	      1.17281404	     81.50333323	     45.19363035	      0.00000000	      0.00000000	     -2.30766500	     -9.43290405	     -2.70994937	     37.24567039	     45.40991328	      0.00000000	      0.00000000
     49.47857143	     -6.91500001	     -5.05235594	      1.70421002	      0.95745756	      0.92557813	      0.43472997	      8.96861537	     -1.65746415	    -11.11312671	     33.05479005	     33.05479005	     11.49332020	     -2.46573119	    -14.36645286	     25.06853675	     -5.84827818	     -2.70340610	     24.82435449	     24.82435449	      9.66539353	    -14.04108633	      4.25803222	     -8.51849757	      4.74844734	      2.89298015	     21.72355473	    -16.10022491	      1.35370268	     79.91374978	     45.23142190	      0.00000000	      0.00000000	     -1.04553786	     -9.70636397	     -2.86965452	     38.05856292	     45.45412793	      0.00000000	      0.00000000
     49.49178571	     -6.93558134	     -5.03761238	      1.48829443	      0.95628005	      0.92589983	      0.43226150	     10.67842215	     -2.12195632	    -10.41271114	     36.35939593	     36.35939593	      8.78327716	     -5.15546461	    -18.36199987	     24.55936450	     -5.78111924	     -3.05887740	     24.66918989	     24.66918989	      9.86195394	    -13.87319293	      3.67306131	     -8.55177084	      4.78202849	      2.48504889	     20.39147863	    -15.36384862	      0.78575690	     76.15988418	     45.36430519	      0.00000000	      0.00000000	     -0.43105225	    -10.17372480	     -3.08088305	     40.23133742	     45.54218568	      0.00000000	      0.00000000
     49.50500000	     -6.97078043	     -4.88063439	      1.20858862	      0.95501210	      0.92601474	      0.42977764	     12.75247107	     -2.85748582	     -9.81360155	     40.34385921	     40.34385921	      7.00517931	     -6.67840280	    -18.91275591	     24.06926784	     -5.55811099	     -3.39835446	     24.56057962	     24.56057962	     10.21646354	    -13.72740086	      3.45457042	     -8.63518039	      4.66983640	      2.56847521	     18.30687116	    -15.57539430	      1.00812827	     74.33035297	     45.40691650	      0.00000000	      0.00000000	      0.91308726	    -10.49536387	     -3.25169900	     41.26189954	     45.59075599	      0.00000000	      0.00000000
     49.51821429	     -6.89739231	     -4.85275587	      1.01286789	      0.95378458	      0.92617615	      0.42739693	     14.71346122	     -3.35143187	     -9.22842113	     44.18916971	     44.18916971	      4.86217895	     -8.62113491	    -19.28592939	     23.55881438	     -5.46980730	     -3.74086023	     24.56309943	     24.56309943	     10.55734853	    -13.67632120	      3.23037329	     -8.78867821	      4.77437293	      2.58482423	     16.33653317	    -15.59413494	      0.98320559	     72.03335505	     45.47364140	      0.00000000	      0.00000000	      2.22445163	    -10.86580247	     -3.37126416	     42.51653096	     45.63520157	      0.00000000	      0.00000000
     49.53142857	     -6.76426968	     -4.77810189	      0.78958484	      0.95258285	      0.92630000	      0.42517832	     16.69714562	     -3.86772240	     -8.64242690	     48.03392707	     48.03392707	      2.52840698	    -10.43026200	    -19.24298884	     23.01276889	     -5.34151700	     -4.02602179	     24.64961674	     24.64961674	     10.95406834	    -13.63088669	      2.98736925	     -9.07909333	      4.75016973	      2.45662737	     14.38492695	    -15.51839275	      0.94309662	     69.79230855	     45.53944288	      0.00000000	      0.00000000	      3.57657785	    -11.32920271	     -3.48245629	     43.73926523	     45.67707662	      0.00000000	      0.00000000
     49.54464286	     -6.60751321	     -4.88729385	      0.56440783	      0.95139721	      0.92643931	      0.42332507	     18.65091563	     -3.95077512	     -7.87541414	     51.64105790	     51.64105790	     -0.00144755	    -12.84476645	    -18.73050467	     22.50740564	     -5.46077710	     -4.32842739	     24.82711937	     24.82711937	     11.35636471	    -13.41873205	      2.63390987	     -9.25151483	      4.92005125	      2.10426133	     13.49942411	    -14.58533497	     -0.31520158	     64.39000214	     45.74923523	      0.00000000	      0.00000000	      4.22049877	    -12.11415001	     -3.12522800	     46.45801028	     45.70526357	      0.00000000	      0.00000000
     49.55785714	     -6.50637987	     -4.78531703	      0.30949398	      0.95021861	      0.92640023	      0.42139552	     20.71262091	     -4.37462642	     -7.30719981	     55.19441934	     55.19441934	     -2.21193218	    -14.29607919	    -17.74358927	     22.00157251	     -5.31128769	     -4.59361899	     24.91511841	     24.91511841	     11.71135483	    -13.45388789	      2.48673704	     -9.44155270	      4.91002373	      2.09973039	     11.40807297	    -14.70844822	     -0.18745597	     62.38070045	     45.79914647	      0.00000000	      0.00000000	      5.60327918	    -12.58125860	     -3.31521867	     47.63291908	     45.75701371	      0.00000000	      0.00000000
     49.57107143	     -6.35720819	     -4.84177014	      0.02567915	      0.94911959	      0.92648884	      0.41977510	     22.65289402	     -4.44918752	     -6.68222293	     58.40846500	     58.40846500	     -4.05085422	    -15.70804566	    -15.74266041	     21.45987298	     -5.36373867	     -4.85290938	     25.04440156	     25.04440156	     12.12939446	    -13.42709905	      2.33301307	     -9.64248261	      5.05901126	      2.38284459	      9.46989178	    -14.88048932	     -0.32918796	     59.37565764	     45.89282218	      0.00000000	      0.00000000	      7.04050392	    -12.93343942	     -3.40652247	     49.22932528	     45.80757898	      0.00000000	      0.00000000
     49.58428571	     -6.11941709	     -4.87262222	     -0.20716415	      0.94813854	      0.92677594	      0.41836388	     24.53390933	     -4.57066133	     -6.27434117	     61.60490687	     61.60490687	     -3.93853589	    -15.49284022	     -9.28438883	     20.81797554	     -5.42215648	     -5.22334593	     25.17966687	     25.17966687	     12.65179263	    -13.13664133	      2.33252985	     -9.87827490	      5.10626853	      1.54132437	      9.19960799	    -13.68866936	     -1.56609715	     53.26027569	     46.11954601	      0.00000000	      0.00000000	      7.46504997	    -14.08947349	     -3.06963396	     51.67697502	     45.86649864	      0.00000000	      0.00000000
     49.59750000	     -5.87404809	     -4.84555643	     -0.46878541	      0.94720655	      0.92709694	      0.41687817	     26.11423304	     -4.72735926	     -5.90088011	     63.93536169	     63.93536169	     -5.32274789	    -16.40381390	     -8.37722278	     20.10101205	     -5.35493057	     -5.43311126	     25.20123167	     25.20123167	     13.00622978	    -13.19050703	      2.25610041	    -10.18193958	      5.20745506	      1.57848712	      7.09087568	    -13.98789705	     -1.44226504	     51.60135076	     46.15710690	      0.00000000	      0.00000000	      8.97216016	    -14.58668921	     -3.44212436	     52.77145899	     45.93284261	      0.00000000	      0.00000000
     49.61071429	     -5.67445060	     -4.97053867	     -0.81067742	      0.94635462	      0.92756855	      0.41576703	     27.65192267	     -4.59213077	     -5.54947107	     65.88750049	     65.88750049	     -5.78687568	    -16.77763757	     -5.95595289	     19.35532708	     -5.49570555	     -5.75889526	     25.10439208	     25.10439208	     13.43472079	    -13.08733113	      2.22730777	    -10.47905680	      5.42247027	      2.28776801	      5.22195998	    -14.34291706	     -1.56397323	     48.13557594	     46.26373394	      0.00000000	      0.00000000	     10.47801492	    -14.65474862	     -3.69856578	     54.64669639	     46.01101377	      0.00000000	      0.00000000
